<svg width="24" height="24" viewBox="0 0 24 24" fill="none" xmlns="http://www.w3.org/2000/svg">
<path d="M2.5 9.05836C2.5 8.72556 2.5 8.55916 2.51389 8.419C2.64782 7.06721 3.7172 5.99782 5.069 5.86389C5.20916 5.85 5.38454 5.85 5.7353 5.85C5.87046 5.85 5.93804 5.85 5.99542 5.84653C6.72808 5.80215 7.36965 5.33973 7.64344 4.6587C7.66488 4.60536 7.68492 4.54524 7.725 4.425C7.76508 4.30476 7.78512 4.24463 7.80656 4.1913C8.08035 3.51027 8.72192 3.04785 9.45458 3.00347C9.51196 3 9.57533 3 9.70208 3H14.2979C14.4247 3 14.488 3 14.5454 3.00347C15.2781 3.04785 15.9197 3.51027 16.1934 4.1913C16.2149 4.24463 16.2349 4.30476 16.275 4.425C16.3151 4.54524 16.3351 4.60536 16.3566 4.6587C16.6303 5.33973 17.2719 5.80215 18.0046 5.84653C18.062 5.85 18.1295 5.85 18.2647 5.85C18.6155 5.85 18.7908 5.85 18.931 5.86389C20.2828 5.99782 21.3522 7.06721 21.4861 8.419C21.5 8.55916 21.5 8.72556 21.5 9.05836V16.49C21.5 18.0861 21.5 18.8842 21.1894 19.4939C20.9161 20.0301 20.4801 20.4661 19.9439 20.7394C19.3342 21.05 18.5361 21.05 16.94 21.05H7.06C5.46385 21.05 4.66578 21.05 4.05613 20.7394C3.51987 20.4661 3.08387 20.0301 2.81063 19.4939C2.5 18.8842 2.5 18.0861 2.5 16.49V9.05836Z" stroke="#969595" stroke-width="2" stroke-linecap="round" stroke-linejoin="round"/>
<path d="M12 16.775C14.0987 16.775 15.8 15.0737 15.8 12.975C15.8 10.8763 14.0987 9.175 12 9.175C9.90132 9.175 8.2 10.8763 8.2 12.975C8.2 15.0737 9.90132 16.775 12 16.775Z" stroke="#969595" stroke-width="2" stroke-linecap="round" stroke-linejoin="round"/>
</svg>
