<svg width="29" height="28" viewBox="0 0 29 28" fill="none" xmlns="http://www.w3.org/2000/svg">
<path d="M25.2996 13.4167C25.2996 18.8935 20.8597 23.3333 15.3829 23.3333C14.1267 23.3333 12.925 23.0997 11.8189 22.6736C11.6167 22.5957 11.5156 22.5568 11.4352 22.5382C11.3561 22.52 11.2988 22.5124 11.2177 22.5093C11.1353 22.5061 11.0448 22.5155 10.8639 22.5342L4.88937 23.1518C4.31975 23.2106 4.03494 23.2401 3.86694 23.1376C3.72061 23.0483 3.62094 22.8992 3.59441 22.7299C3.56395 22.5355 3.70005 22.2836 3.97225 21.7797L5.88051 18.2476C6.03767 17.9567 6.11624 17.8113 6.15183 17.6714C6.18698 17.5333 6.19548 17.4337 6.18424 17.2917C6.17285 17.1478 6.10974 16.9606 5.9835 16.586C5.64806 15.5909 5.46624 14.525 5.46624 13.4167C5.46624 7.93984 9.90608 3.5 15.3829 3.5C20.8597 3.5 25.2996 7.93984 25.2996 13.4167Z" fill="#969595"/>
</svg>
