<svg width="29" height="28" viewBox="0 0 29 28" fill="none" xmlns="http://www.w3.org/2000/svg">
<path d="M15.546 3.22468C15.1362 2.90589 14.9312 2.74649 14.7049 2.68522C14.5053 2.63115 14.2948 2.63115 14.0951 2.68522C13.8688 2.74649 13.6639 2.90589 13.254 3.22468L5.34131 9.37899C4.81238 9.79038 4.54792 9.99608 4.35739 10.2537C4.18862 10.4819 4.06289 10.7389 3.98639 11.0122C3.90002 11.3208 3.90002 11.6558 3.90002 12.3259V20.7667C3.90002 22.0735 3.90002 22.7268 4.15434 23.226C4.37805 23.665 4.735 24.022 5.17405 24.2457C5.67317 24.5 6.32657 24.5 7.63336 24.5H9.96669C10.2934 24.5 10.4567 24.5 10.5815 24.4364C10.6913 24.3805 10.7805 24.2913 10.8364 24.1815C10.9 24.0567 10.9 23.8934 10.9 23.5667V17.5C10.9 16.8466 10.9 16.5199 11.0272 16.2703C11.139 16.0508 11.3175 15.8723 11.537 15.7605C11.7866 15.6333 12.1133 15.6333 12.7667 15.6333H16.0334C16.6868 15.6333 17.0134 15.6333 17.263 15.7605C17.4825 15.8723 17.661 16.0508 17.7729 16.2703C17.9 16.5199 17.9 16.8466 17.9 17.5V23.5667C17.9 23.8934 17.9 24.0567 17.9636 24.1815C18.0195 24.2913 18.1088 24.3805 18.2185 24.4364C18.3433 24.5 18.5067 24.5 18.8334 24.5H21.1667C22.4735 24.5 23.1269 24.5 23.626 24.2457C24.065 24.022 24.422 23.665 24.6457 23.226C24.9 22.7268 24.9 22.0735 24.9 20.7667V12.3259C24.9 11.6558 24.9 11.3208 24.8137 11.0122C24.7372 10.7389 24.6114 10.4819 24.4427 10.2537C24.2521 9.99608 23.9877 9.79038 23.4587 9.379L15.546 3.22468Z" fill="#969595"/>
</svg>
