<svg width="28" height="28" viewBox="0 0 28 28" fill="none" xmlns="http://www.w3.org/2000/svg">
<path d="M8.00004 5.83333C7.44776 5.83333 7.00004 6.28104 7.00004 6.83333V21.1667C7.00004 21.7189 7.44776 22.1667 8.00004 22.1667H9.50004C10.0523 22.1667 10.5 21.7189 10.5 21.1667V15.1667H17.5V21.1667C17.5 21.7189 17.9478 22.1667 18.5 22.1667H20C20.5523 22.1667 21 21.7189 21 21.1667V6.83333C21 6.28104 20.5523 5.83333 20 5.83333H18.5C17.9478 5.83333 17.5 6.28104 17.5 6.83333V12.8333H10.5V6.83333C10.5 6.28104 10.0523 5.83333 9.50004 5.83333H8.00004ZM3.50004 17.5C3.50004 17.8094 3.62296 18.1062 3.84175 18.325C4.06054 18.5437 4.35729 18.6667 4.66671 18.6667H5.83337V9.33333H4.66671C4.35729 9.33333 4.06054 9.45624 3.84175 9.67504C3.62296 9.89383 3.50004 10.1906 3.50004 10.5V12.8333H2.33337V15.1667H3.50004V17.5ZM24.5 10.5C24.5 10.1906 24.3771 9.89383 24.1583 9.67504C23.9395 9.45624 23.6428 9.33333 23.3334 9.33333H22.1667V18.6667H23.3334C23.6428 18.6667 23.9395 18.5437 24.1583 18.325C24.3771 18.1062 24.5 17.8094 24.5 17.5V15.1667H25.6667V12.8333H24.5V10.5Z" fill="#969595"/>
</svg>
